<svg xmlns="http://www.w3.org/2000/svg" viewBox="0 0 454.57 395.4"><defs><style>.cls-1,.cls-10,.cls-11,.cls-17,.cls-24,.cls-7,.cls-8{fill:none}.cls-3{fill:#79b8ff}.cls-4{fill:#c8e1ff}.cls-5{fill:#f66a0a}.cls-6{fill:#0366d6}.cls-7{stroke:#2b66cf}.cls-10,.cls-11,.cls-17,.cls-19,.cls-22,.cls-24,.cls-7,.cls-8{stroke-miterlimit:10}.cls-7{stroke-width:10px}.cls-10,.cls-17,.cls-19,.cls-22,.cls-24,.cls-8{stroke:#05264c}.cls-19,.cls-22,.cls-8{stroke-width:.75px}.cls-10{stroke-width:.68px}.cls-11{stroke:#79b8ff;stroke-width:2px}.cls-13{fill:#f8d45b}.cls-14{opacity:.6}.cls-15{fill:#d4ac3b}.cls-17{stroke-linecap:round}.cls-18{fill:#d4692c}.cls-19{fill:#fff}.cls-25{mix-blend-mode:multiply}.cls-21{fill:#fdaeb7}.cls-22{fill:#2b66cf}.cls-24{stroke-width:.68px}.cls-25{opacity:.4}</style><clipPath id="clip-path"><path class="cls-1" d="M434.75 275.29s-8-6.52-22.13-10.9c-4.57-24.38-4.78-60-23.55-69.28-7.87-3.88 13.63-13.31 13.09-22.37-.59-9.79-1.43-20.65-5.43-29.59-5.35-12-22.59-11.3-32.92-3l-8.74 39.35c-1.1 8.66 9.82 17.49 7.22 25.89-6.22 20.11-6.19 43.48-1.12 64.16 2.46 10.15 10.24 13.89 24.78 15.69 6.72 15.19 7.54 22.36 10.46 39 4.87-.09 12.57-1.29 17.44-1.38a2.47 2.47 0 0 0 2.94-3c.73-14.66.39-15.29-2.58-29.66a134.1 134.1 0 0 1 13.3 2.62 28.44 28.44 0 0 0 7.24-17.53z"/></clipPath><clipPath id="clip-path-2"><path class="cls-1" d="M116 182.12s-15.51-8.52-34.91 12.66-41.17 45.95-37 68c3.52 18.6 74.8 21.76 97.17 22.29a5.94 5.94 0 0 1 5.73 6.75L141 334.71h15.51L171 281.82a19.77 19.77 0 0 0-15.28-24.6l-53.13-10.41 17-21.61 7.19 10.47c5.07 7.38 15.25 7.65 22.52 4.05l38.78-18.58-4.7-11.62-36.14 11.4c-2.31.46-5.06.06-6.25-2.29-5.58-10.95-13.08-31.01-24.99-36.51z"/></clipPath></defs><g style="isolation:isolate"><g id="Layer_2" data-name="Layer 2"><g id="Layer_1-2" data-name="Layer 1"><ellipse class="cls-3" cx="257.03" cy="184.97" rx="136.75" ry="138.15"/><circle class="cls-4" cx="255.21" cy="176.27" r="134.51"/><path class="cls-5" d="M317.31 145.93s-2.9-14.8-15.36-10.08c0 0-12.76 5.57-1.65 19 3.17 3.83 11.85.16 11.85.16z"/><circle class="cls-6" cx="255.04" cy="180.47" r="38.91"/><path class="cls-3" d="M153.27 164.22v-31a12.37 12.37 0 0 0-12.37-12.37h-40.63V79.27H143a12.37 12.37 0 0 0 12.39-12.37 12.37 12.37 0 0 1 12.37-12.37h101.66v32.94h-56.34a12.37 12.37 0 0 0-12.37 12.37v152.74A12.37 12.37 0 0 0 213.08 265h56.34v32.93H167.75a12.37 12.37 0 0 1-12.37-12.37A12.37 12.37 0 0 0 143 273.15h-42.73v-41.58h40.63a12.37 12.37 0 0 0 12.37-12.37v-55z"/><path class="cls-6" d="M210.48 123.82c1.64-8.12 4.1-16.24 8.77-23.08a34.11 34.11 0 0 1 11.34-10.54c1.59-.9 3.84-1.68 5.93-2.66h-23.37a12.37 12.37 0 0 0-12.37 12.37v152.73A12.37 12.37 0 0 0 213.15 265h2c-4.09-5.56-5.52-13.19-6.33-20.27-2.68-23.48-2.39-47.19-2.1-70.82.21-16.76.43-33.65 3.76-50.09z"/><circle class="cls-3" cx="255.04" cy="176.27" r="38.91"/><path class="cls-7" d="M255.21 106.34v137.83M305.65 149.15l-111.36 59.66M194.29 143.72l121.49 65.09"/><rect class="cls-3" x="229.66" y="231.57" width="53.95" height="33.38" rx="4.39" ry="4.39"/><path class="cls-3" d="M242.89 231.57h26.53v33.38h-26.53z"/><circle class="cls-4" cx="235.78" cy="238.04" r="2.2"/><path class="cls-6" d="M263.78 264.91a24.3 24.3 0 0 1-20.43-16.4c-1 2.5-3.59 4-6.09 5s-5.19 1.88-7.14 3.75a6.3 6.3 0 0 0-.47.51v2.71a4.39 4.39 0 0 0 4.39 4.39z"/><circle class="cls-4" cx="235.78" cy="247.97" r="2.2"/><circle class="cls-3" cx="235.78" cy="257.89" r="2.2"/><circle class="cls-4" cx="275.81" cy="238.04" r="2.2"/><circle class="cls-4" cx="275.81" cy="247.97" r="2.2"/><circle class="cls-4" cx="275.81" cy="257.89" r="2.2"/><path class="cls-3" d="M100.27 54.54H125v24.73h-24.73z"/><path class="cls-3" d="M108.38 46.02h8.52v8.52h-8.52z"/><path class="cls-8" d="M312.96 176.88h68.46M348.2 142.74v68.67"/><path class="cls-3" d="M251.4 47.81h10.48v6.73H251.4zM251.4 297.56h10.48v6.73H251.4z"/><circle class="cls-7" cx="255.04" cy="176.88" r="27.43"/><path class="cls-4" d="M104.86 109.82c6.35-16.92-.08-36.85 7.2-53.39a4.06 4.06 0 0 1 1.58-2.07h-13.37v62.78a19.15 19.15 0 0 0 4.59-7.32z"/><circle class="cls-7" cx="348.2" cy="180.47" r="17.84"/><circle cx="348.2" cy="176.88" r="17.84" stroke="#86b7f8" stroke-width="10" stroke-miterlimit="10" fill="none"/><path class="cls-8" d="M125.01 79.27h-24.74M125.01 273.15h-24.74"/><rect class="cls-3" x="229.66" y="87.58" width="53.95" height="33.38" rx="4.39" ry="4.39"/><path class="cls-3" d="M242.89 87.58h26.53v33.38h-26.53z"/><path class="cls-6" d="M234.05 87.69a4.39 4.39 0 0 0-4.39 4.39v24.6a4.37 4.37 0 0 0 3.1 4.17 23.28 23.28 0 0 0 6.4-6.13c1.63-2.31 2.81-4.9 4.26-7.33a39.64 39.64 0 0 1 26.78-18.45v-1.25z"/><circle class="cls-3" cx="235.78" cy="94.05" r="2.2"/><circle class="cls-3" cx="235.78" cy="103.98" r="2.2"/><circle class="cls-3" cx="235.78" cy="113.9" r="2.2"/><circle class="cls-4" cx="275.81" cy="94.05" r="2.2"/><circle class="cls-4" cx="275.81" cy="103.98" r="2.2"/><circle class="cls-4" cx="275.81" cy="113.9" r="2.2"/><path class="cls-8" d="M269.42 87.58v33.38M242.89 87.58v33.38M269.42 231.53v33.38M242.89 231.53v33.38"/><path class="cls-1" d="M270.2 88.83a39.64 39.64 0 0 0-26.77 18.46c-1.45 2.43-2.64 5-4.26 7.33a23.31 23.31 0 0 1-10.8 8.38V85h41.83z"/><path class="cls-8" d="M108.38 54.54h8.52M251.4 54.54h10.48M251.4 297.56h10.48"/><path class="cls-10" d="M282.48.34c4.81 0 4.81 10 9.62 10s4.81-10 9.62-10 4.81 10 9.62 10 4.81-10 9.63-10 4.81 10 9.63 10"/><circle class="cls-11" cx="174.45" cy="388.29" r="6.1"/><path stroke="#2088ff" stroke-width="2" stroke-miterlimit="10" fill="none" d="M376.16 38.79h-10.42l-5.2 9.02 5.2 9.02h10.42l5.21-9.02-5.21-9.02z"/><path class="cls-11" d="M47.07 99.87H33.41l-6.83 11.83 6.83 11.82h13.66l6.83-11.82-6.83-11.83z"/><path class="cls-8" transform="rotate(-45 330.359 367.44)" d="M320.92 358.01h18.88v18.88h-18.88z"/><path class="cls-8" d="M136.18 5.34h12.45v12.45h-12.45z"/><path class="cls-5" d="M412.62 322.93c.15 0 0 13.75 0 13.75h-8.7l-2.12-15zM434.58 277.28l9.82 6.04-3.3 6.95-11.8-3.56 5.28-9.43z"/><path class="cls-6" d="M178.22 297.88a102 102 0 0 0 8.48 5.66h24.89l-10.54-5.66z"/><path class="cls-13" d="M434.75 275.29s-8-6.52-22.13-10.9c-4.57-24.38-4.78-60-23.55-69.28-7.87-3.88 13.63-13.31 13.09-22.37-.59-9.79-1.43-20.65-5.43-29.59-5.35-12-21.76-11.11-32.1-2.8l-9.56 39.16c-1.1 8.66 9.82 17.49 7.22 25.89-6.22 20.11-6.19 43.48-1.12 64.16 2.46 10.15 10.24 13.89 24.78 15.69 6.72 15.19 7.54 22.36 10.46 39 4.87-.09 12.57-1.29 17.44-1.38a2.47 2.47 0 0 0 2.94-3c.73-14.66.39-15.29-2.58-29.66a134.1 134.1 0 0 1 13.3 2.62 28.44 28.44 0 0 0 7.24-17.54z"/><g class="cls-14"><path class="cls-15" d="M413.68 277.68l.81 12.57c7.18 1 13.12 2.59 13.12 2.59a28.12 28.12 0 0 0 4.87-7.57c-6.4-2.14-12.48-5.06-18.8-7.59z"/></g><g class="cls-14"><path class="cls-15" d="M362.26 205.41c-6.22 20.11-6.19 43.48-1.12 64.16 2.46 10.15 10.24 13.89 24.78 15.69 6.73 15.19 7.54 22.36 10.46 39 4.87-.09 12.57-1.29 17.44-1.38a2.47 2.47 0 0 0 2.94-3c.09-1.87.17-3.51.22-5l-.23-.44c-7.77-14.19-20.53-24.83-32.48-35.73l-.11-.1-13-48.68c-1 7.32 1.68 25.65 4.15 39.88-6.23-7-11.14-14.93-11.48-24.08-.38-10 5-19.54 12.28-26.43 6.6-6.26 14.66-10.68 22.76-14.88l-1.58-2.42-34.76 2.41z"/></g><g clip-path="url(#clip-path)"><path class="cls-17" d="M338.03 180.28h.13M348.73 180.28h.12M359.42 180.28h.13M370.11 180.28h.13M380.81 180.28h.12M391.5 180.28h.13M402.19 180.28h.13M412.89 180.28h.12M423.58 180.28h.13M338.03 192.74h.13M348.73 192.74h.12M359.42 192.74h.13M370.11 192.74h.13M380.81 192.74h.12M391.5 192.74h.13M402.19 192.74h.13M412.89 192.74h.12M423.58 192.74h.13M338.03 205.2h.13M348.73 205.2h.12M359.42 205.2h.13M370.11 205.2h.13M380.81 205.2h.12M391.5 205.2h.13M402.19 205.2h.13M412.89 205.2h.12M423.58 205.2h.13M338.03 217.67h.13M348.73 217.67h.12M359.42 217.67h.13M370.11 217.67h.13M380.81 217.67h.12M391.5 217.67h.13M402.19 217.67h.13M412.89 217.67h.12M423.58 217.67h.13M343.02 186.51h.12M353.71 186.51h.13M364.4 186.51h.13M375.1 186.51h.12M385.79 186.51h.13M396.48 186.51h.13M407.17 186.51h.13M417.87 186.51h.12M428.56 186.51h.13M343.02 198.97h.12M353.71 198.97h.13M364.4 198.97h.13M375.1 198.97h.12M385.79 198.97h.13M396.48 198.97h.13M407.17 198.97h.13M417.87 198.97h.12M428.56 198.97h.13M343.02 211.44h.12M353.71 211.44h.13M364.4 211.44h.13M375.1 211.44h.12M385.79 211.44h.13M396.48 211.44h.13M407.17 211.44h.13M417.87 211.44h.12M428.56 211.44h.13M338.03 230.25h.13M348.73 230.25h.12M359.42 230.25h.13M370.11 230.25h.13M380.81 230.25h.12M391.5 230.25h.13M402.19 230.25h.13M412.89 230.25h.12M423.58 230.25h.13M338.03 242.71h.13M348.73 242.71h.12M359.42 242.71h.13M370.11 242.71h.13M380.81 242.71h.12M391.5 242.71h.13M402.19 242.71h.13M412.89 242.71h.12M423.58 242.71h.13M338.03 255.17h.13M348.73 255.17h.12M359.42 255.17h.13M370.11 255.17h.13M380.81 255.17h.12M391.5 255.17h.13M402.19 255.17h.13M412.89 255.17h.12M423.58 255.17h.13M343.02 224.02h.12M353.71 224.02h.13M364.4 224.02h.13M375.1 224.02h.12M385.79 224.02h.13M396.48 224.02h.13M407.17 224.02h.13M417.87 224.02h.12M428.56 224.02h.13M343.02 236.48h.12M353.71 236.48h.13M364.4 236.48h.13M375.1 236.48h.12M385.79 236.48h.13M396.48 236.48h.13M407.17 236.48h.13M417.87 236.48h.12M428.56 236.48h.13M343.02 248.94h.12M353.71 248.94h.13M364.4 248.94h.13M375.1 248.94h.12M385.79 248.94h.13M396.48 248.94h.13M407.17 248.94h.13M417.87 248.94h.12M428.56 248.94h.13M338.08 255.15h.13M348.78 255.15h.12M359.47 255.15h.13M370.16 255.15h.13M380.85 255.15h.13M391.55 255.15h.12M402.24 255.15h.13M412.93 255.15h.13M423.63 255.15h.12M338.08 267.61h.13M348.78 267.61h.12M359.47 267.61h.13M370.16 267.61h.13M380.85 267.61h.13M391.55 267.61h.12M402.24 267.61h.13M412.93 267.61h.13M423.63 267.61h.12M338.08 280.08h.13M348.78 280.08h.12M359.47 280.08h.13M370.16 280.08h.13M380.85 280.08h.13M391.55 280.08h.12M402.24 280.08h.13M412.93 280.08h.13M423.63 280.08h.12M338.08 292.54h.13M348.78 292.54h.12M359.47 292.54h.13M370.16 292.54h.13M380.85 292.54h.13M391.55 292.54h.12M402.24 292.54h.13M412.93 292.54h.13M423.63 292.54h.12M343.06 261.38h.13M353.76 261.38h.12M364.45 261.38h.13M375.14 261.38h.13M385.84 261.38h.12M396.53 261.38h.13M407.22 261.38h.13M417.92 261.38h.12M428.61 261.38h.13M343.06 273.84h.13M353.76 273.84h.12M364.45 273.84h.13M375.14 273.84h.13M385.84 273.84h.12M396.53 273.84h.13M407.22 273.84h.13M417.92 273.84h.12M428.61 273.84h.13M343.06 286.31h.13M353.76 286.31h.12M364.45 286.31h.13M375.14 286.31h.13M385.84 286.31h.12M396.53 286.31h.13M407.22 286.31h.13M417.92 286.31h.12M428.61 286.31h.13M338.08 305.12h.13M348.78 305.12h.12M359.47 305.12h.13M370.16 305.12h.13M380.85 305.12h.13M391.55 305.12h.12M402.24 305.12h.13M412.93 305.12h.13M423.63 305.12h.12M338.08 317.58h.13M348.78 317.58h.12M359.47 317.58h.13M370.16 317.58h.13M380.85 317.58h.13M391.55 317.58h.12M402.24 317.58h.13M412.93 317.58h.13M423.63 317.58h.12M338.08 330.04h.13M348.78 330.04h.12M359.47 330.04h.13M370.16 330.04h.13M380.85 330.04h.13M391.55 330.04h.12M402.24 330.04h.13M412.93 330.04h.13M423.63 330.04h.12M343.06 298.89h.13M353.76 298.89h.12M364.45 298.89h.13M375.14 298.89h.13M385.84 298.89h.12M396.53 298.89h.13M407.22 298.89h.13M417.92 298.89h.12M428.61 298.89h.13M343.06 311.35h.13M353.76 311.35h.12M364.45 311.35h.13M375.14 311.35h.13M385.84 311.35h.12M396.53 311.35h.13M407.22 311.35h.13M417.92 311.35h.12M428.61 311.35h.13M343.06 323.81h.13M353.76 323.81h.12M364.45 323.81h.13M375.14 323.81h.13M385.84 323.81h.12M396.53 323.81h.13M407.22 323.81h.13M417.92 323.81h.12M428.61 323.81h.13"/></g><path class="cls-5" d="M382.88 130.28a51.47 51.47 0 0 1-40.37 20.49c-19.51.23-27.07-5.32-27.07-5.32l-4.82 9.28s36.8 29.42 81.15-2.45"/><path class="cls-18" d="M312.06 153.22l-.26 2.35a66.33 66.33 0 0 0 65.55 5.18l-2.56-8.6s-34.24 21.75-62.73 1.07z"/><path class="cls-5" d="M402.55 94a11.91 11.91 0 0 0-3.3-3c-1.06-5.08-4.3-9.88-9-11.56-5.92-2.1-12.88.74-14.62 7.1-1.27 4.65.72 8.42 4 11a8.35 8.35 0 0 0 6.92 8.52 8.35 8.35 0 0 0 3.9 9c3.71 2.17 9.64 1.11 11.63-3a16 16 0 0 0 1.72-7.47A10.65 10.65 0 0 0 402.55 94z"/><path class="cls-6" d="M384.28 123.62s.51 5.29 4.54 8.31 7.1 10.74 8.34 15.65-18.77-8-18.77-8-6.16-9.45-6.4-15.38 12.29-.58 12.29-.58z"/><path class="cls-18" d="M384.28 123.62s.51 5.29 4.54 8.31 7.1 10.74 8.34 15.65-18.77-8-18.77-8-6.16-9.45-6.4-15.38 12.29-.58 12.29-.58z"/><ellipse class="cls-5" cx="378.86" cy="109.31" rx="17.63" ry="14.72" transform="rotate(-71.35 378.886 109.303)"/><path class="cls-8" d="M369.11 96.8a18 18 0 0 0 12.72 13.85M374.35 90.45c-2.45-1-3.68-4-3.35-6.64a12.16 12.16 0 0 1 3.84-6.81 17.85 17.85 0 0 1 10.69-5.34A12.27 12.27 0 0 1 396.34 76a14.55 14.55 0 0 1 2.61 8.22c.11 2.58-.26 5.34-1.91 7.34s-4.84 2.86-6.89 1.28a2 2 0 0 1-.71-.89c-.34-.95.43-1.91 1.22-2.54a10.87 10.87 0 0 1 12.24-.84 9.38 9.38 0 0 1 3.53 11.44c-1.86 3.95-7.26 5.87-11 3.7 1.51-2.82 6-2.14 8.19.2 1.95 2.09 2.81 5.4 1.41 7.89s-5.39 3.29-7.22 1.09c2.32-.91 4.72 2.41 3.43 4.54s-4.81 2.06-6.38.13M383.27 110.9a2.6 2.6 0 0 1 4.29-.8 3.88 3.88 0 0 1 .48 3.2c-.47 2.21-2.16 4.37-4.41 4.47"/><path class="cls-6" d="M372 135l1.39-5.19 12.34-2.28 3.1 4.36s-4.74 5.78-16.83 3.11z"/><path class="cls-19" d="M435 293.68c2.86 6.72-1.66 15.21 2.05 21.5 2.68-2.36 4.4-5.59 6.07-8.74l11.07-20.92c.18-.35-10.77-8.28-12-8.24 0 0-2.18 1.4-1.1 5.93s-2 6.55-4.81 5.71-1.28 4.76-1.28 4.76zM399.88 333.13c-3.82 6.22-13.36 6-16.34 12.7l34.11-.36c.39-.05.51-15-.22-16 0 0-2.4-1-5.46 2.54s-6.52 2.14-7.44-.61-4.65 1.73-4.65 1.73z"/><path class="cls-6" d="M388.82 131.93s7.8 5.09 11.94 22.45c4.24 17.8 12.07 45.39 12.07 45.39s-29.13 10.84-62 2.73l7.86-47.83s2.42-21.43 19.54-20.35z"/><path class="cls-21" d="M358.71 154.72l-7.86 47.83a103.21 103.21 0 0 0 16.71 2.66c4.62-1.51 9.3-2.6 13.41-5.3a35 35 0 0 0 10-10.42c4.29-6.6 5.84-15.46 1.82-22.59-3-5.23-8.66-8.15-13.93-11s-10.78-6.48-12.69-12.18a7.38 7.38 0 0 1-.07-5.05c-6.25 5.95-7.39 16.05-7.39 16.05z"/><path class="cls-5" d="M314.71 206.53L370 199a13.13 13.13 0 0 0 9.53-7.63l9.63-25.83a7.59 7.59 0 0 0-4-9.49l-10.71-4.63a5.74 5.74 0 0 0-8.14 4.11l-4.47 19.25a13.58 13.58 0 0 1-8.42 9l-40.24 12"/><path class="cls-22" d="M365.83 152.79l1.49-5.84a1.57 1.57 0 0 1 2.33-1l22.77 13.68a1.57 1.57 0 0 1 .7 1.79l-1 3.33a1.57 1.57 0 0 1-2.18 1l-23.27-11.15a1.57 1.57 0 0 1-.84-1.81z"/><path class="cls-8" d="M365.51 139.18s-6.18 3.68-9.46 30"/><path class="cls-22" d="M373.2 130.54l-1.09 5.19a17.14 17.14 0 0 0 16.71-3.8"/><path class="cls-8" d="M414.18 290.27l-1.56-25.88M385.92 285.26l-14.97-56.12"/><path class="cls-5" d="M315.86 205.53c-1.52 2.13-1.47 2.53-3.2 3.73-1.95 1.35-6.25 3.18-7 6.63s-3.69 2.3-5.89 1.42c-1.8-.72-3-2.36-4.14-4a7.55 7.55 0 0 1-1.45-3 7.89 7.89 0 0 1 1.17-4.51l2.48-5.07a11.54 11.54 0 0 1 2.12-3.31c2.39-2.33 6.18-2.15 9.51-1.83l5.51.54"/><path class="cls-8" d="M383.63 116a3.12 3.12 0 1 0 2.23.94"/><path class="cls-5" d="M155.25 334.71l15.43 7.14a5.25 5.25 0 0 1 2.91 4.8v.47h-33.21v-12.41z"/><path class="cls-13" d="M116.68 183l7.72-13.36-9.7-5.29S108 177.17 97.52 183"/><ellipse class="cls-13" cx="124.4" cy="156.28" rx="17.63" ry="14.72" transform="rotate(-71.35 124.415 156.286)"/><path class="cls-5" d="M116 182.12s-15.51-8.52-34.91 12.66-41.17 45.95-37 68c3.52 18.6 74.8 21.76 97.17 22.29a5.94 5.94 0 0 1 5.73 6.75L141 334.71h15.51L171 281.82a19.77 19.77 0 0 0-15.28-24.6l-53.13-10.41 17-21.61 7.19 10.47c5.07 7.38 14.84 7.65 22.52 4.05l38.78-18.58-4.7-11.62-36.14 11.4c-2.44.45-5.06.06-6.25-2.29-5.58-10.95-13.08-31.01-24.99-36.51z"/><path class="cls-8" d="M108.95 160.77c-.87 2-3.47 2.57-5.66 2.49-11.47-.44-21-10.69-32.46-10.53-11.17.15-20.39 11.33-15.61 22.24 1.93 4.42 6 9.1 3.72 13.32s-8.36 3.27-13.05 4a15.49 15.49 0 0 0-12.56 13.44c-.68 7.27 5.3 16.84 13.43 15.3M116.21 158.21a3.11 3.11 0 0 0 2.54 5.19"/><g clip-path="url(#clip-path-2)"><path class="cls-10" d="M208.63 300.84a9.62 9.62 0 0 1-8.67-.28 23.33 23.33 0 0 1-6.83-5.79 9.32 9.32 0 0 1-2.38-3.91 8.89 8.89 0 0 1 .59-4.72C196.09 272 207.53 261 212.77 247c2.73-7.28 3.34-16.37-2-22-3.16-3.34-7.76-4.8-12-6.57a67.76 67.76 0 0 1-11.51-6.18 12.49 12.49 0 0 1-4.64-4.62c-1.77-3.7 0-8 .68-12.06a20.53 20.53 0 0 0-31.62-20.29"/><path class="cls-10" d="M199.5 302.33a9.76 9.76 0 0 1-9-1.14c-.33-.21-.64-.44-.94-.68a25.27 25.27 0 0 1-5-5.93 12.81 12.81 0 0 1-2.14-4.33 9 9 0 0 1 .53-4.62c4.39-13.85 14.88-24.63 19.94-38.39 2.64-7.17 3.33-16-1.66-21.64a17.09 17.09 0 0 0-4.48-3.47c-2.17-1.22-4.54-2.16-6.8-3.19a66 66 0 0 1-10.95-6.28 12.36 12.36 0 0 1-4.39-4.61 7.76 7.76 0 0 1-.65-2.44c-.32-3 .85-6.29 1.32-9.42a21 21 0 0 0-8.89-20.19 20.65 20.65 0 0 0-21.94-.23"/><path class="cls-10" d="M190.37 303.81a9.94 9.94 0 0 1-9.32-2 11.62 11.62 0 0 1-.88-.81 25.28 25.28 0 0 1-4.25-6.61 19.7 19.7 0 0 1-1.89-4.75 9.22 9.22 0 0 1 .47-4.53c4-13.57 13.56-24.09 18.44-37.65 2.54-7.06 3.32-15.72-1.32-21.27a16.53 16.53 0 0 0-4.19-3.47c-2-1.24-4.26-2.21-6.39-3.27a64.6 64.6 0 0 1-10.23-6.38 12.27 12.27 0 0 1-4.13-4.59 7.86 7.86 0 0 1-.61-2.4c-.29-3 .82-6.18 1.26-9.27a21 21 0 0 0-8.66-19.91 20.29 20.29 0 0 0-21.45-.63"/><path class="cls-10" d="M181.24 305.3a10.18 10.18 0 0 1-9.65-2.86 11 11 0 0 1-.81-.94c-1.7-2.2-2.49-4.68-3.45-7.3a36.88 36.88 0 0 1-1.65-5.17 9.42 9.42 0 0 1 .4-4.44c3.66-13.29 12.25-23.55 17-36.91 2.45-6.95 3.31-15.39-1-20.89a16 16 0 0 0-3.89-3.48c-1.89-1.26-4-2.26-6-3.36a63.56 63.56 0 0 1-9.59-6.47 12.23 12.23 0 0 1-3.88-4.57 8 8 0 0 1-.57-2.36c-.27-2.91.79-6.07 1.21-9.11A21.09 21.09 0 0 0 151 177.8a19.93 19.93 0 0 0-21-1"/><path class="cls-10" d="M172.12 306.78a10.4 10.4 0 0 1-10.73-4.78c-1.53-2.47-2-5.15-2.66-8-.42-1.68-1-3.48-1.41-5.59a9.67 9.67 0 0 1 .34-4.34c3.29-13 10.94-23 15.46-36.17 2.35-6.83 3.3-15.07-.65-20.52a15.58 15.58 0 0 0-3.6-3.48c-1.76-1.28-3.7-2.31-5.55-3.44a63 63 0 0 1-8.95-6.57 12.25 12.25 0 0 1-3.63-4.55 8.14 8.14 0 0 1-.52-2.32c-.24-2.86.77-6 1.16-9a21.15 21.15 0 0 0-8.12-19.37 19.59 19.59 0 0 0-20.47-1.43"/><path class="cls-10" d="M163 308.27a10.8 10.8 0 0 1-10.3-4.57 10 10 0 0 1-.69-1.2c-1.35-2.75-1.41-5.62-1.86-8.67-.27-1.81-.69-3.74-1.16-6a10 10 0 0 1 .28-4.25c2.93-12.72 9.63-22.47 14-35.43 2.26-6.72 3.29-14.74-.31-20.15a15.32 15.32 0 0 0-3.3-3.49c-1.62-1.29-3.42-2.37-5.13-3.52a63 63 0 0 1-8.31-6.67 12.33 12.33 0 0 1-3.38-4.53 8.33 8.33 0 0 1-.48-2.28c-.21-2.81.74-5.85 1.1-8.8a21.24 21.24 0 0 0-7.85-19.1 19.25 19.25 0 0 0-20-1.83"/><path class="cls-10" d="M153.86 309.76a11.18 11.18 0 0 1-10.63-5.43 9.9 9.9 0 0 1-.63-1.32c-1.18-3-.87-6.09-1.07-9.36a44.83 44.83 0 0 0-.92-6.43 10.32 10.32 0 0 1 .21-4.15c2.56-12.44 8.31-21.93 12.47-34.69 2.16-6.61 3.28-14.42 0-19.77a15.07 15.07 0 0 0-3-3.49c-1.49-1.31-3.13-2.42-4.72-3.6a63.79 63.79 0 0 1-7.67-6.77 12.49 12.49 0 0 1-3.12-4.51 8.56 8.56 0 0 1-.44-2.25c-.19-2.76.71-5.74 1.05-8.64a21.35 21.35 0 0 0-7.58-18.83 18.91 18.91 0 0 0-19.5-2.22"/><path class="cls-10" d="M144.73 311.24a11.6 11.6 0 0 1-11-6.29 9.93 9.93 0 0 1-.57-1.45c-1-3.31-.33-6.56-.27-10a31 31 0 0 0-.68-6.85 10.76 10.76 0 0 1 .15-4.06c2.2-12.16 7-21.39 11-33.95 2.07-6.5 3.27-14.09.37-19.4a14.93 14.93 0 0 0-2.72-3.5c-1.35-1.33-2.85-2.47-4.3-3.69a65.64 65.64 0 0 1-7-6.87 12.75 12.75 0 0 1-2.87-4.5 8.83 8.83 0 0 1-.4-2.21c-.16-2.7.69-5.63 1-8.48a21.49 21.49 0 0 0-7.31-18.56 18.59 18.59 0 0 0-19-2.62"/><path class="cls-10" d="M135.61 312.73a12 12 0 0 1-11.28-7.14 10.07 10.07 0 0 1-.51-1.58c-.83-3.59.2-7 .52-10.73a25.08 25.08 0 0 0-.43-7.27 11.32 11.32 0 0 1 .09-4c1.83-11.88 5.69-20.85 9.48-33.21 2-6.39 3.26-13.76.7-19a14.92 14.92 0 0 0-2.42-3.5c-1.22-1.35-2.57-2.53-3.88-3.77a69 69 0 0 1-6.38-7 13.14 13.14 0 0 1-2.62-4.48 9.16 9.16 0 0 1-.35-2.17c-.13-2.65.66-5.52.94-8.32a21.67 21.67 0 0 0-7-18.29 18.28 18.28 0 0 0-18.52-3"/><path class="cls-10" d="M126.48 314.21a12.53 12.53 0 0 1-11.61-8 10.31 10.31 0 0 1-.44-1.71c-.66-3.87.74-7.5 1.32-11.42a22 22 0 0 0-.19-7.69 12 12 0 0 1 0-3.87c1.46-11.6 4.38-20.31 8-32.47 1.87-6.28 3.24-13.44 1-18.65a15.08 15.08 0 0 0-2.13-3.51c-1.08-1.37-2.29-2.58-3.46-3.85a74.61 74.61 0 0 1-5.74-7.06 13.7 13.7 0 0 1-2.37-4.46 9.58 9.58 0 0 1-.31-2.13c-.11-2.6.63-5.41.89-8.17a21.89 21.89 0 0 0-6.78-18 18 18 0 0 0-18-3.42"/><path class="cls-10" d="M117.35 315.7a13 13 0 0 1-11.93-8.86A10.63 10.63 0 0 1 105 305c-.48-4.14 1.28-8 2.11-12.11a20.16 20.16 0 0 0 .05-8.11 13 13 0 0 1 0-3.78c1.1-11.31 3.07-19.77 6.5-31.73 1.78-6.17 3.23-13.11 1.38-18.27a15.45 15.45 0 0 0-1.83-3.51c-.94-1.39-2-2.63-3-3.94a83.92 83.92 0 0 1-5.1-7.16 14.48 14.48 0 0 1-2.11-4.44 10.09 10.09 0 0 1-.27-2.09c-.08-2.54.61-5.3.84-8A22.15 22.15 0 0 0 97 184.09a17.68 17.68 0 0 0-17.54-3.82"/><path class="cls-10" d="M108.22 317.19A13.55 13.55 0 0 1 96 307.47a10.9 10.9 0 0 1-.32-2c-.31-4.42 1.83-8.44 2.91-12.79a19 19 0 0 0 .29-8.53 14.18 14.18 0 0 1-.1-3.69 139 139 0 0 1 5-31c1.68-6.06 3.22-12.79 1.72-17.9a16.09 16.09 0 0 0-1.54-3.52c-.81-1.41-1.73-2.69-2.63-4-1.51-2.22-3-4.65-4.46-7.26a15.56 15.56 0 0 1-1.87-4.4 10.73 10.73 0 0 1-.23-2.05c-.05-2.49.58-5.19.78-7.85A22.47 22.47 0 0 0 89.3 185a17.39 17.39 0 0 0-17.06-4.22"/><path class="cls-10" d="M99.1 318.67a14.1 14.1 0 0 1-12.59-10.57 11.33 11.33 0 0 1-.26-2.1c-.14-4.7 2.37-8.91 3.7-13.48a18.32 18.32 0 0 0 .54-9 15.88 15.88 0 0 1-.16-3.59c.37-10.75.44-18.69 3.51-30.24 1.59-5.95 3.21-12.46 2.06-17.53a17.06 17.06 0 0 0-1.24-3.52c-.67-1.43-1.45-2.74-2.21-4.1-1.28-2.27-2.56-4.73-3.82-7.36a17.21 17.21 0 0 1-1.63-4.37 11.69 11.69 0 0 1-.18-2c0-2.44.55-5.08.73-7.7.44-6.26-1.75-12.93-6-17.21A17.12 17.12 0 0 0 65 181.27"/><path class="cls-10" d="M90 320.16a14.67 14.67 0 0 1-12.91-11.43 11.8 11.8 0 0 1-.2-2.23c0-5 2.91-9.38 4.5-14.17a17.93 17.93 0 0 0 .78-9.37 18.37 18.37 0 0 1-.23-3.5c0-10.47-.87-18.15 2-29.5 1.49-5.84 3.2-12.14 2.39-17.15a18.46 18.46 0 0 0-.95-3.53c-.54-1.45-1.17-2.79-1.79-4.19-1-2.32-2.12-4.81-3.18-7.46a19.42 19.42 0 0 1-1.41-4.39 12.8 12.8 0 0 1-.14-2c0-2.39.53-5 .68-7.54.38-6.13-1.69-12.65-5.7-16.94a16.86 16.86 0 0 0-16.08-5"/><path class="cls-10" d="M80.84 321.64c-6.58-.67-12.29-6.07-13.24-12.29a12.3 12.3 0 0 1-.14-2.36c.2-5.26 3.45-9.85 5.29-14.85a17.73 17.73 0 0 0 1-9.79 22.29 22.29 0 0 1-.29-3.41c-.36-10.18-2.18-17.61.52-28.76 1.4-5.72 3.19-11.81 2.73-16.78a20.41 20.41 0 0 0-.65-3.53c-.4-1.46-.89-2.85-1.37-4.27-.82-2.37-1.67-4.9-2.54-7.56a22.66 22.66 0 0 1-1.1-4.37 14.3 14.3 0 0 1-.1-1.94c0-2.33.5-4.87.62-7.38.31-6-1.62-12.38-5.43-16.67a16.6 16.6 0 0 0-15.59-5.42"/><path class="cls-10" d="M71.71 323.13c-6.85-.82-12.71-6.58-13.56-13.13a12.83 12.83 0 0 1-.07-2.49c.37-5.54 4-10.32 6.09-15.54a17.67 17.67 0 0 0 1.27-10.21 29.3 29.3 0 0 1-.35-3.31c-.73-9.9-3.5-17.07-1-28 1.3-5.61 3.18-11.49 3.07-16.4a23.08 23.08 0 0 0-.36-3.54c-.26-1.48-.6-2.9-1-4.35-.59-2.42-1.23-5-1.9-7.65a27.33 27.33 0 0 1-.85-4.35 16.15 16.15 0 0 1-.06-1.9c.06-2.28.47-4.76.57-7.23.24-5.87-1.55-12.11-5.16-16.4a16.36 16.36 0 0 0-15.1-5.82"/><path class="cls-10" d="M62.59 324.61c-7.14-1-13.19-7.08-13.89-14a13.24 13.24 0 0 1 0-2.62c.53-5.82 4.53-10.79 6.88-16.23a17.7 17.7 0 0 0 1.51-10.63c-.2-1.1-.3-2.18-.42-3.22-1.09-9.62-4.81-16.53-2.47-27.28 1.21-5.5 3.17-11.16 3.41-16a26.62 26.62 0 0 0-.06-3.54c-.13-1.5-.32-3-.54-4.44-.36-2.47-.79-5.06-1.26-7.75a35.59 35.59 0 0 1-.6-4.33v-1.86c.08-2.23.45-4.65.52-7.07.18-5.74-1.49-11.84-4.89-16.13a16.13 16.13 0 0 0-14.62-6.21"/><path class="cls-10" d="M53.46 326.1c-7.46-1.1-13.64-7.59-14.22-14.86a13.83 13.83 0 0 1 0-2.75c.7-6.1 5.07-11.26 7.68-16.91a17.82 17.82 0 0 0 1.75-11.05c-.2-1.07-.32-2.12-.48-3.12-1.46-9.34-6.12-16-4-26.54 1.11-5.39 3.16-10.83 3.75-15.65a31.2 31.2 0 0 0 .23-3.55c0-1.52 0-3-.12-4.52-.13-2.52-.34-5.14-.62-7.85-.14-1.37-.31-2.79-.34-4.31v-1.82c.11-2.18.42-4.54.46-6.91.11-5.61-1.42-11.57-4.62-15.85a15.91 15.91 0 0 0-14.13-6.61"/><path class="cls-10" d="M44.33 327.59c-7.7-1.26-14.09-8.1-14.55-15.72a14.44 14.44 0 0 1 .12-2.87c.88-6.38 5.61-11.73 8.47-17.6a18 18 0 0 0 2-11.47c-.19-1-.35-2.06-.54-3-1.82-9.06-7.43-15.45-5.45-25.8 1-5.28 3.15-10.51 4.09-15.28.24-1.22.42-2.4.53-3.55.15-1.54.24-3.06.3-4.6.1-2.57.1-5.22 0-7.95 0-1.38-.11-2.8-.09-4.3 0-.59 0-1.18.07-1.78.14-2.12.39-4.43.41-6.76 0-5.48-1.36-11.3-4.35-15.58a15.7 15.7 0 0 0-13.64-7"/><path class="cls-10" d="M35.2 329.07c-8-1.41-14.54-8.61-14.87-16.58a15.06 15.06 0 0 1 .17-3c1-6.66 6.15-12.2 9.27-18.29 1.87-3.64 3-7.48 2.24-11.89-.18-1-.37-2-.6-2.94-2.19-8.77-8.75-14.91-6.95-25.06.92-5.17 3.14-10.18 4.42-14.91.33-1.21.61-2.39.82-3.56.29-1.56.52-3.11.72-4.68.32-2.62.54-5.3.66-8 .06-1.39.08-2.8.16-4.28 0-.58.07-1.16.12-1.74.16-2.07.37-4.32.36-6.6 0-5.35-1.29-11-4.09-15.31a15.5 15.5 0 0 0-13.15-7.41"/><path class="cls-10" d="M26.08 330.56c-8.26-1.56-15-9.12-15.2-17.43a15.7 15.7 0 0 1 .23-3.14c1.22-6.93 6.69-12.67 10.06-19 2-3.77 3.28-7.74 2.48-12.31a25.39 25.39 0 0 0-.67-2.84c-2.55-8.49-10.06-14.37-8.44-24.32.82-5.06 3.12-9.86 4.76-14.53.42-1.2.8-2.38 1.12-3.57.43-1.58.8-3.17 1.13-4.77.55-2.66 1-5.39 1.3-8.15.16-1.4.28-2.81.41-4.26l.16-1.7a58.72 58.72 0 0 0 .3-6.44c-.08-5.22-1.23-10.75-3.82-15a15.31 15.31 0 0 0-12.66-7.81"/><path class="cls-10" d="M16.95 332c-9.61-1.88-17.14-11.65-15.23-21.51C3.95 299 17.51 290.72 15.3 278.1c-1.72-9.8-12.3-15.53-10.67-26.33.92-6.22 4.44-11.86 6.51-17.73a85.34 85.34 0 0 0 4.36-19c1.23-11.19-1.42-27.86-15.47-29.27"/></g><path class="cls-10" d="M120.28 226.25l-15-22.73"/><path class="cls-6" d="M143.5 254.92l-41-8-59 10.3a30.28 30.28 0 0 0 .51 5.69c3.11 16.41 59 20.8 87.44 22z"/><path class="cls-13" d="M143.61 254.92l-12 29.85c3.78.16 7.09.26 9.71.32a5.94 5.94 0 0 1 5.73 6.75l-5.94 42.86h15.51l14.4-52.88a19.77 19.77 0 0 0-15.28-24.6l-12.16-2.38"/><circle class="cls-10" cx="88.69" cy="309.59" r="57.85"/><path class="cls-10" d="M46.06 270.68l-25.33-80.47a5.8 5.8 0 0 0-7.23-3.37 5.88 5.88 0 0 0-3.85 7.38l27.18 86.36a5.87 5.87 0 0 0 .86 1.7l106.48 10.9M88.69 251.74v115.71M146.54 309.59H30.83M129.6 350.5l-81.82-81.81"/><path class="cls-24" d="M129.73 268.62l-81.95 81.95"/><path class="cls-8" d="M138.84 143.72a16.63 16.63 0 0 1-7.37 9.86 33.38 33.38 0 0 1-11.76 4.37c-3.77.76-8.06 1.08-11.1-1.27"/><path class="cls-10" d="M156.67 334.71h-15.63"/><g class="cls-25"><path class="cls-21" d="M144.25 312.64c1.33-1.86 2.62-3.75 3.82-5.7 2.58-4.17 4.83-8.67 5.48-13.52s-.53-10.16-4-13.6a18.36 18.36 0 0 0-8.35-4.34c-9-2.39-18.57-.93-27.91-1.1-9.15-.17-19.17-2.52-24.57-9.83a34.7 34.7 0 0 1-4-16.55c.16-8.47 3.53-16.52 7-24.23s7.3-15.48 8.38-23.89a29.17 29.17 0 0 0-2.74-17.15c-.39.15-.78.32-1.18.5-4.54 2.12-9.62 5.7-15 11.58-3.05 3.34-6.17 6.76-9.23 10.25-14.71 17.15-28.35 35.86-28.09 53.11a30.28 30.28 0 0 0 .56 5.54c5.55 17.83 74.94 20.9 97 21.42a5.94 5.94 0 0 1 5.73 6.75z"/></g><g class="cls-25"><path class="cls-21" d="M123.94 231.27l3 4.41c5.07 7.38 14.21 7.65 22.52 4.05l38.56-18.58-.72-1.78-44.69 13.74a5.88 5.88 0 0 1-6.55-.92L107 205.85z"/></g><path class="cls-5" d="M311.07 153.83s-6.69-1.83-8-4.68l4.72-1.62"/><path d="M308.62 140.08L298 138.63a2.36 2.36 0 0 0-2.74 1.59c-.88 2.08 6.56 3.8 6.56 3.8s.08 6.15 3.52 7.27" stroke-width=".64" stroke="#05264c" stroke-miterlimit="10" fill="#f66a0a"/><path class="cls-13" d="M183.36 209.53c17.7-6.94 16.65-2.81 17.37.52s1.93 11.24-2.83 11.72a36.59 36.59 0 0 1-9.84-.62z"/><path class="cls-13" d="M183.36 209.53s10.2-9.75 12.06-8.51-.83 5.33-3.31 6.81M201.37 214.53s4.51-3.51 4.38-6.7-1.52-3.32-1.52-3.32l-6.47 3.32"/><path class="cls-13" d="M200.34 218s5.8-3 6.05-5.41-.41-4.44-2.13-4.8-5.85 5.73-5.85 5.73"/><path class="cls-13" d="M199.19 221.39s6.34-2.57 6.56-5.13-2.76-4-2.76-4M203.68 205.72s-.41-4.68-4.48-2.79a36 36 0 0 0-7.93 5.47l7.15.68"/><path class="cls-8" d="M203.23 205.22s0 2.14-5 3.88M205.75 208.81s0 2.14-5 3.88M205.31 214.53a13.08 13.08 0 0 1-4.09 3"/><path class="cls-24" d="M295.61 213.35a31.69 31.69 0 0 1 4.76-11.35M298 216.41s1-6.36 3.59-10M301.58 217.69s.46-5.56 2.78-8.88"/></g></g></g></svg>